# xmcd
#
# Track frame offsets:
#	150
#	15537
#	26700
#	37677
#	56555
#	65933
#	76619
#	94681
#	107218
#	119120
#	132922
#	154148
#	171520
#	192346
#	205814
#	217561
#	231957
#	251134
#
# Disc length: 3657 seconds
#
# Revision: 0
# Processed by: cddbd v1.4PL0 Copyright (c) Steve Scherf et al.
# Submitted via: audiograbber 1.81.02
#
DISCID=f90e4712
DTITLE=RXR - Live in Althofen - Altstadtfest 14.08.02
DYEAR=2002
DGENRE=Acoustic
TTITLE0=Speed of the sound of Loneliness
TTITLE1=Cottonfields
TTITLE2=Teach your Children
TTITLE3=Bobby McGee
TTITLE4=Whole Stop The Rain
TTITLE5=Wasted Time
TTITLE6=Sloop John B.
TTITLE7=I am A Believer
TTITLE8=Death Of The Clown
TTITLE9=Bergwerk
TTITLE10=Groﬂvota
TTITLE11=Hymne
TTITLE12=Don¥t Think Twice
TTITLE13=Bonus - Death Of The Clown
TTITLE14=Bonus - Straights FromThe Heart
TTITLE15=Bonus - Bergwerk
TTITLE16=Bonus - Don¥t Think Twice
TTITLE17=Bonus - Groﬂvota
EXTD=Benefizkonzert zugunsten 2er Jugendlicher die vergewaltigt wurden.
EXTT0=
EXTT1=
EXTT2=
EXTT3=
EXTT4=
EXTT5=
EXTT6=
EXTT7=
EXTT8=
EXTT9=
EXTT10=
EXTT11=
EXTT12=
EXTT13=
EXTT14=
EXTT15=
EXTT16=
EXTT17=
PLAYORDER=
